<svg width="207" height="551" viewBox="0 0 207 551" fill="none" xmlns="http://www.w3.org/2000/svg">
<path d="M-17.4504 529.195C-17.4504 529.195 -15.3101 429.534 29.1984 355.14C87.8659 256.866 111.889 93.3159 101.454 52.168" stroke="#B89490" stroke-opacity="0.5" stroke-width="1.0549" stroke-miterlimit="10"/>
<path d="M92.7605 174.39C92.7605 174.39 107.294 150.864 131.011 147.904" stroke="#B89490" stroke-opacity="0.5" stroke-width="1.0549" stroke-miterlimit="10"/>
<path d="M97.3351 148.827C97.3351 148.827 84.9563 143.656 88.0908 123.673C91.2463 104.418 80.2137 97.9686 75.696 97.8108" stroke="#B89490" stroke-opacity="0.5" stroke-width="1.0549" stroke-miterlimit="10"/>
<path d="M58.4804 295.403C58.4804 295.403 69.5471 292.963 75.0595 274.658C81.5681 253.045 91.705 253.692 97.8911 258.682" stroke="#B89490" stroke-opacity="0.5" stroke-width="1.0549" stroke-miterlimit="10"/>
<path d="M76.6924 240.512C76.6924 240.512 65.237 237.062 66.4033 222.019" stroke="#B89490" stroke-opacity="0.5" stroke-width="1.0549" stroke-miterlimit="10"/>
<path d="M-8.25128 457.157C-8.25128 457.157 12.4518 450.643 16.3169 428.234C20.1819 405.825 53.1733 340.952 68.5359 323.448" stroke="#B89490" stroke-opacity="0.5" stroke-width="1.0549" stroke-miterlimit="10"/>
<path d="M27.2901 397.381C27.2901 397.381 38.5934 382.985 52.0656 378.142" stroke="#B89490" stroke-opacity="0.5" stroke-width="1.0549" stroke-miterlimit="10"/>
<path d="M13.5756 386.275C13.5756 386.275 17.8504 370.484 10.1562 356.14" stroke="#B89490" stroke-opacity="0.5" stroke-width="1.0549" stroke-miterlimit="10"/>
<path d="M41.1307 332.273C41.1307 332.273 27.0317 328.027 36.3733 313.762C44.9423 300.466 45.3636 282.312 45.3636 282.312" stroke="#B89490" stroke-opacity="0.5" stroke-width="1.0549" stroke-miterlimit="10"/>
<path d="M130.706 46.7844C120.337 70.8431 118.946 73.07 104.928 74.1405C90.9098 75.211 85.6179 60.8687 84.2314 43.1322C82.7785 25.6162 85.8611 11.3904 99.8791 10.3199C113.897 9.24944 137.736 30.6203 130.706 46.7844Z" fill="#F0C3B0" fill-opacity="0.5"/>
<path d="M109.852 148.748C109.852 148.748 130.646 107.623 150.662 120.146C170.458 132.602 152.599 154.405 128.176 158.115C103.818 161.604 109.852 148.748 109.852 148.748Z" fill="#F0C3B0" fill-opacity="0.5"/>
<path d="M93.2245 107.42C94.8704 96.3695 93.236 82.6475 77.4443 75.246C48.6583 61.526 38.2265 83.4008 47.2457 95.7386C53.3168 104.302 68.8947 106.828 79.1125 112.792C83.8473 115.42 91.9562 116.419 93.2245 107.42Z" fill="#F0C3B0" fill-opacity="0.5"/>
<path d="M86.1356 265.004C88.2138 276.454 104.308 304.393 129.066 282.021C153.824 259.65 120.774 236.949 93.0152 246.149C87.106 248.218 85.1945 260.15 86.1356 265.004Z" fill="#F0C3B0" fill-opacity="0.5"/>
<path d="M67.9319 232.101C74.4776 231.907 86.2425 218.372 75.1289 206.606C59.9657 190.734 57.6349 170.548 39.023 178.895C17.3237 188.717 28.591 233.483 67.9319 232.101Z" fill="#F0C3B0" fill-opacity="0.5"/>
<path d="M60.1868 336.809C60.1868 336.809 90.5878 345.964 95.632 331.607C100.676 317.251 96.136 301.21 80.5094 302.037C64.5962 303.018 45.2051 317.143 60.1868 336.809Z" fill="#F0C3B0" fill-opacity="0.5"/>
<path d="M40.7503 384.597C40.7503 384.597 44.6978 382.658 60.9755 389.244C74.2354 394.68 85.3572 384.078 76.3834 370.792C67.1229 357.66 47.821 354.734 40.7503 384.597Z" fill="#F0C3B0" fill-opacity="0.5"/>
<path d="M44.6193 294.356C44.6193 294.356 52.5776 292.664 53.6645 287.458C54.8179 282.033 66.0402 262.32 39.9544 256.389C13.8687 250.458 27.6775 289.976 44.6193 294.356Z" fill="#F0C3B0" fill-opacity="0.5"/>
<path d="M12.9007 362.98C12.9007 362.98 46.2143 336.931 17.89 324.072C-1.13978 315.454 -17.6865 344.869 12.9007 362.98Z" fill="#F0C3B0" fill-opacity="0.5"/>
</svg>
