<svg width="113" height="511" viewBox="0 0 113 511" fill="none" xmlns="http://www.w3.org/2000/svg">
<g clip-path="url(#clip0_1011_2086)">
<rect width="113" height="511" fill="#F9F8F6"/>
<g clip-path="url(#clip1_1011_2086)">
<path d="M-70.405 641.264C-70.405 641.264 -68.2647 541.603 -23.7562 467.209C34.9113 368.935 58.9343 205.385 48.4995 164.237" stroke="#AAAAAA" stroke-width="1.0549" stroke-miterlimit="10"/>
<path d="M39.8054 286.46C39.8054 286.46 54.3386 262.934 78.0562 259.974" stroke="#AAAAAA" stroke-width="1.0549" stroke-miterlimit="10"/>
<path d="M44.38 260.897C44.38 260.897 32.0013 255.726 35.1357 235.743C38.2913 216.488 27.2586 210.038 22.7409 209.881" stroke="#AAAAAA" stroke-width="1.0549" stroke-miterlimit="10"/>
<path d="M5.52581 407.473C5.52581 407.473 16.5925 405.032 22.1049 386.727C28.6135 365.114 38.7504 365.762 44.9365 370.752" stroke="#AAAAAA" stroke-width="1.0549" stroke-miterlimit="10"/>
<path d="M23.7378 352.581C23.7378 352.581 12.2824 349.132 13.4487 334.088" stroke="#AAAAAA" stroke-width="1.0549" stroke-miterlimit="10"/>
<path d="M-61.2054 569.227C-61.2054 569.227 -40.5023 562.712 -36.6372 540.303C-32.7722 517.894 0.21923 453.021 15.5818 435.517" stroke="#AAAAAA" stroke-width="1.0549" stroke-miterlimit="10"/>
<path d="M-11.8244 444.343C-11.8244 444.343 -25.9234 440.097 -16.5817 425.831C-8.01277 412.536 -7.59152 394.382 -7.59152 394.382" stroke="#AAAAAA" stroke-width="1.0549" stroke-miterlimit="10"/>
<path d="M77.7524 158.855C67.3837 182.913 65.9923 185.14 51.9742 186.211C37.9562 187.281 32.6643 172.939 31.2778 155.203C29.8249 137.687 32.9075 123.461 46.9255 122.39C60.9436 121.32 84.7825 142.691 77.7524 158.855Z" fill="#2B663C"/>
<path d="M56.8979 260.818C56.8979 260.818 77.6919 219.693 97.7081 232.216C117.504 244.672 99.6453 266.475 75.2214 270.185C50.864 273.674 56.8979 260.818 56.8979 260.818Z" fill="#2B663C"/>
<path d="M40.2709 219.489C41.9167 208.439 40.2824 194.717 24.4907 187.315C-4.29527 173.595 -14.7271 195.47 -5.70793 207.808C0.363155 216.371 15.9411 218.898 26.1589 224.861C30.8937 227.49 39.0026 228.488 40.2709 219.489Z" fill="#2B663C"/>
<path d="M33.1815 377.074C35.2597 388.524 51.3542 416.463 76.1119 394.091C100.869 371.72 67.8202 349.018 40.0611 358.218C34.1519 360.288 32.2404 372.22 33.1815 377.074Z" fill="#2B663C"/>
<path d="M14.9783 344.17C21.524 343.976 33.2889 330.441 22.1753 318.675C7.01213 302.803 4.68129 282.618 -13.9306 290.964C-35.6299 300.786 -24.3626 345.553 14.9783 344.17Z" fill="#2B663C"/>
<path d="M7.23323 448.879C7.23323 448.879 37.6342 458.034 42.6784 443.677C47.7226 429.32 43.1823 413.28 27.5558 414.107C11.6426 415.088 -7.7485 429.213 7.23323 448.879Z" fill="#2B663C"/>
<path d="M-12.2034 496.666C-12.2034 496.666 -8.25581 494.728 8.02185 501.314C21.2818 506.75 32.4036 496.148 23.4298 482.862C14.1693 469.73 -5.13265 466.804 -12.2034 496.666Z" fill="#2B663C"/>
<path d="M-8.33476 406.425C-8.33476 406.425 -0.376518 404.733 0.710415 399.528C1.86376 394.102 13.0861 374.39 -12.9997 368.458C-39.0854 362.527 -25.2766 402.045 -8.33476 406.425Z" fill="#2B663C"/>
</g>
</g>
<defs>
<clipPath id="clip0_1011_2086">
<rect width="113" height="511" fill="white"/>
</clipPath>
<clipPath id="clip1_1011_2086">
<rect width="143.103" height="532.049" fill="white" transform="translate(16.417 112) rotate(16.7592)"/>
</clipPath>
</defs>
</svg>
