<svg width="146" height="551" viewBox="0 0 146 551" fill="none" xmlns="http://www.w3.org/2000/svg">
<rect x="-2" y="-112" width="104" height="507" fill="#F9F8F6"/>
<path d="M-78.4047 529.265C-78.4047 529.265 -76.2645 429.604 -31.756 355.209C26.9116 256.936 50.9345 93.3857 40.4998 52.2378" stroke="#AAAAAA" stroke-width="1.0549" stroke-miterlimit="10"/>
<path d="M31.8055 174.461C31.8055 174.461 46.3388 150.935 70.0564 147.974" stroke="#AAAAAA" stroke-width="1.0549" stroke-miterlimit="10"/>
<path d="M36.38 148.898C36.38 148.898 24.0013 143.727 27.1357 123.744C30.2913 104.488 19.2586 98.0389 14.7409 97.8811" stroke="#AAAAAA" stroke-width="1.0549" stroke-miterlimit="10"/>
<path d="M-2.47406 295.473C-2.47406 295.473 8.59264 293.033 14.105 274.728C20.6136 253.115 30.7505 253.762 36.9366 258.752" stroke="#AAAAAA" stroke-width="1.0549" stroke-miterlimit="10"/>
<path d="M15.738 240.582C15.738 240.582 4.28262 237.132 5.44897 222.089" stroke="#AAAAAA" stroke-width="1.0549" stroke-miterlimit="10"/>
<path d="M-69.2054 457.227C-69.2054 457.227 -48.5023 450.713 -44.6372 428.304C-40.7722 405.895 -7.78077 341.021 7.58181 323.518" stroke="#AAAAAA" stroke-width="1.0549" stroke-miterlimit="10"/>
<path d="M69.7522 46.8552C59.3836 70.9139 57.9921 73.1409 43.9741 74.2113C29.9561 75.2818 24.6642 60.9395 23.2777 43.203C21.8248 25.687 24.9074 11.4612 38.9254 10.3907C52.9434 9.32024 76.7824 30.6911 69.7522 46.8552Z" fill="#2B663C"/>
<path d="M48.8981 148.819C48.8981 148.819 69.692 107.694 89.7082 120.216C109.504 132.672 91.6454 154.475 67.2215 158.185C42.8641 161.675 48.8981 148.819 48.8981 148.819Z" fill="#2B663C"/>
<path d="M32.2707 107.49C33.9165 96.4393 32.2822 82.7173 16.4905 75.3158C-12.2955 61.5958 -22.7273 83.4707 -13.7082 95.8084C-7.63709 104.372 7.94082 106.898 18.1587 112.862C22.8934 115.49 31.0023 116.489 32.2707 107.49Z" fill="#2B663C"/>
<path d="M25.1815 265.074C27.2597 276.524 43.3542 304.463 68.1119 282.092C92.8695 259.72 59.8202 237.019 32.0611 246.219C26.1519 248.288 24.2404 260.221 25.1815 265.074Z" fill="#2B663C"/>
<path d="M6.97802 232.171C13.5238 231.977 25.2887 218.441 14.1751 206.676C-0.988116 190.804 -3.31895 170.618 -21.9309 178.965C-43.6302 188.787 -32.3628 233.553 6.97802 232.171Z" fill="#2B663C"/>
<path d="M-0.766894 336.879C-0.766894 336.879 29.6341 346.034 34.6783 331.678C39.7225 317.321 35.1822 301.28 19.5557 302.107C3.64246 303.088 -15.7486 317.213 -0.766894 336.879Z" fill="#2B663C"/>
<path d="M-20.2036 384.667C-20.2036 384.667 -16.2561 382.729 0.0216093 389.314C13.2815 394.751 24.4033 384.149 15.4295 370.862C6.16901 357.73 -13.1329 354.804 -20.2036 384.667Z" fill="#2B663C"/>
<path d="M-16.3349 294.426C-16.3349 294.426 -8.37664 292.733 -7.28971 287.528C-6.13636 282.103 5.08593 262.39 -20.9998 256.459C-47.0856 250.528 -33.2767 290.046 -16.3349 294.426Z" fill="#2B663C"/>
</svg>
