<svg width="215" height="49" viewBox="0 0 215 49" fill="none" xmlns="http://www.w3.org/2000/svg">
<path d="M97.7436 24.3783C98.9148 22.4065 100.638 21.4467 102.329 20.6243C99.4498 16.8318 94.2647 17.3918 93.017 12.96C93.017 12.96 87.2954 26.6414 97.0716 29.0097C96.6859 27.726 96.6951 26.1425 97.7432 24.3779L97.7436 24.3783Z" fill="#7AC35A"/>
<path d="M93.9989 14.8722C93.5741 14.3529 93.2341 13.7335 93.0161 12.9595C93.0161 12.9595 92.9344 13.1552 92.8081 13.501C93.1324 14.0444 93.5373 14.4896 93.9993 14.8722H93.9989Z" fill="#16A34A"/>
<path d="M101.246 19.4697C101.354 19.5937 101.459 19.7215 101.562 19.8562C99.8706 20.6786 98.1475 21.6384 96.9762 23.6102C95.9281 25.3748 95.9189 26.9583 96.3046 28.242C94.9675 27.9181 93.9221 27.3816 93.1108 26.6985C93.9927 27.7492 95.268 28.5724 97.0721 29.0095C96.6864 27.7258 96.6957 26.1424 97.7437 24.3778C98.915 22.406 100.638 21.4462 102.329 20.6237C101.996 20.1851 101.631 19.8067 101.246 19.4697Z" fill="#7AC35A"/>
<path d="M96.5148 21.0812C96.3501 20.9473 96.108 20.9737 95.9752 21.138C95.8417 21.303 95.8674 21.5444 96.032 21.678C97.6676 23.002 97.617 23.887 97.6135 23.9261C97.5817 24.1303 97.7179 24.3245 97.9228 24.3625C97.9466 24.3667 97.9701 24.369 97.9935 24.369C98.175 24.369 98.3362 24.24 98.3703 24.0551C98.3945 23.9242 98.5488 22.728 96.5148 21.0812Z" fill="#66BB6A"/>
<path d="M99.3359 32.3653C99.3359 32.3653 95.0042 28.9846 97.7402 24.3794C100.476 19.7741 106.221 20.686 107.544 15.9897C107.544 15.9897 114.702 33.1014 99.3359 32.3653Z" fill="#3CB65A"/>
<path d="M98.5058 25.1469C101.098 20.7827 106.391 21.3698 108.063 17.4473C107.773 16.5447 107.541 15.9897 107.541 15.9897C106.219 20.6863 100.474 19.7741 97.7379 24.3794C95.1954 28.6596 98.7556 31.8802 99.271 32.3139C98.1685 31.044 96.572 28.4025 98.5058 25.1469Z" fill="#3CB65A"/>
<path d="M105.426 23.3466C105.347 23.1497 105.123 23.0542 104.927 23.1344C98.8787 25.5725 98.6408 34.8206 98.6339 35.2132C98.63 35.425 98.7989 35.5997 99.0103 35.6039H99.0176C99.2264 35.6039 99.3972 35.4369 99.4014 35.2274C99.4029 35.1364 99.6382 26.094 105.214 23.8463C105.41 23.7672 105.506 23.5435 105.427 23.347L105.426 23.3466Z" fill="#7AC35A"/>
<path d="M15.4147 38.52C13.5214 38.52 11.7414 38.1467 10.0747 37.4C8.40802 36.64 6.94135 35.6 5.67469 34.28C4.42135 32.9467 3.43469 31.4 2.71469 29.64C2.00802 27.88 1.65469 26 1.65469 24C1.65469 22 2.00802 20.12 2.71469 18.36C3.43469 16.6 4.42135 15.06 5.67469 13.74C6.94135 12.4067 8.40802 11.3667 10.0747 10.62C11.7414 9.86 13.5214 9.48 15.4147 9.48C17.6814 9.48 19.768 10.0067 21.6747 11.06C23.5814 12.1133 25.1614 13.5133 26.4147 15.26L22.7147 17.24C21.848 16.1467 20.7747 15.2733 19.4947 14.62C18.2147 13.9667 16.8547 13.64 15.4147 13.64C14.0814 13.64 12.8347 13.9133 11.6747 14.46C10.5147 15.0067 9.49469 15.7533 8.61469 16.7C7.73469 17.6467 7.04802 18.7467 6.55469 20C6.06135 21.2533 5.81469 22.5867 5.81469 24C5.81469 25.4267 6.06135 26.7667 6.55469 28.02C7.04802 29.26 7.73469 30.36 8.61469 31.32C9.50802 32.2667 10.5347 33.0133 11.6947 33.56C12.8547 34.0933 14.0947 34.36 15.4147 34.36C16.8814 34.36 18.248 34.0333 19.5147 33.38C20.7947 32.7133 21.8614 31.8333 22.7147 30.74L26.4147 32.76C25.1614 34.5067 23.5814 35.9067 21.6747 36.96C19.768 38 17.6814 38.52 15.4147 38.52ZM30.1891 38V18H34.3491V20.12C35.0424 19.2933 35.8957 18.64 36.9091 18.16C37.9224 17.68 39.0157 17.44 40.1891 17.44C40.9357 17.44 41.6757 17.54 42.4091 17.74L40.7491 21.94C40.2291 21.74 39.7091 21.64 39.1891 21.64C38.3091 21.64 37.5024 21.86 36.7691 22.3C36.0357 22.7267 35.4491 23.3067 35.0091 24.04C34.5691 24.7733 34.3491 25.5867 34.3491 26.48V38H30.1891ZM52.5828 38.52C50.7428 38.52 49.0628 38.0467 47.5428 37.1C46.0361 36.1533 44.8295 34.8867 43.9228 33.3C43.0295 31.7 42.5828 29.9333 42.5828 28C42.5828 26.5333 42.8428 25.1667 43.3628 23.9C43.8828 22.62 44.5961 21.5 45.5028 20.54C46.4228 19.5667 47.4895 18.8067 48.7028 18.26C49.9161 17.7133 51.2095 17.44 52.5828 17.44C54.4228 17.44 56.0961 17.9133 57.6028 18.86C59.1228 19.8067 60.3295 21.08 61.2228 22.68C62.1295 24.28 62.5828 26.0533 62.5828 28C62.5828 29.4533 62.3228 30.8133 61.8028 32.08C61.2828 33.3467 60.5628 34.4667 59.6428 35.44C58.7361 36.4 57.6761 37.1533 56.4628 37.7C55.2628 38.2467 53.9695 38.52 52.5828 38.52ZM52.5828 34.36C53.6895 34.36 54.6828 34.0667 55.5628 33.48C56.4428 32.8933 57.1361 32.12 57.6428 31.16C58.1628 30.1867 58.4228 29.1333 58.4228 28C58.4228 26.84 58.1561 25.7733 57.6228 24.8C57.1028 23.8267 56.4028 23.0533 55.5228 22.48C54.6428 21.8933 53.6628 21.6 52.5828 21.6C51.4895 21.6 50.4961 21.8933 49.6028 22.48C48.7228 23.0667 48.0228 23.8467 47.5028 24.82C46.9961 25.7933 46.7428 26.8533 46.7428 28C46.7428 29.1867 47.0095 30.26 47.5428 31.22C48.0761 32.18 48.7828 32.9467 49.6628 33.52C50.5561 34.08 51.5295 34.36 52.5828 34.36ZM69.9741 48H65.8141V18H69.9741V20.94C70.6407 19.9133 71.4941 19.08 72.5341 18.44C73.5741 17.8 74.8007 17.48 76.2141 17.48C77.6674 17.48 79.0274 17.7533 80.2941 18.3C81.5741 18.8467 82.6941 19.6067 83.6541 20.58C84.6141 21.54 85.3674 22.6533 85.9141 23.92C86.4607 25.1867 86.7341 26.5467 86.7341 28C86.7341 29.4533 86.4607 30.82 85.9141 32.1C85.3674 33.38 84.6141 34.5067 83.6541 35.48C82.6941 36.44 81.5741 37.1933 80.2941 37.74C79.0274 38.2867 77.6674 38.56 76.2141 38.56C74.8007 38.56 73.5741 38.24 72.5341 37.6C71.4941 36.9467 70.6407 36.1133 69.9741 35.1V48ZM76.1741 21.5C75.0141 21.5 73.9941 21.7933 73.1141 22.38C72.2341 22.9667 71.5474 23.7533 71.0541 24.74C70.5607 25.7133 70.3141 26.8 70.3141 28C70.3141 29.2 70.5607 30.2933 71.0541 31.28C71.5474 32.2667 72.2341 33.0533 73.1141 33.64C73.9941 34.2267 75.0141 34.52 76.1741 34.52C77.3207 34.52 78.3741 34.2333 79.3341 33.66C80.2941 33.0733 81.0607 32.2867 81.6341 31.3C82.2074 30.3133 82.4941 29.2133 82.4941 28C82.4941 26.8133 82.2074 25.7267 81.6341 24.74C81.0741 23.7533 80.3141 22.9667 79.3541 22.38C78.3941 21.7933 77.3341 21.5 76.1741 21.5Z" fill="#60A965"/>
<path d="M96.2956 37.608C96.2956 36.712 96.5943 36.0293 97.1916 35.56C97.8103 35.0907 98.5676 34.856 99.4636 34.856C100.36 34.856 101.117 35.0907 101.736 35.56C102.354 36.0293 102.664 36.712 102.664 37.608C102.664 38.504 102.354 39.176 101.736 39.624C101.117 40.0933 100.36 40.328 99.4636 40.328C98.5676 40.328 97.8103 40.0933 97.1916 39.624C96.5943 39.176 96.2956 38.504 96.2956 37.608Z" fill="#CC6039"/>
<path d="M121.123 40V17.6H128.531C130.078 17.6 131.528 17.8933 132.883 18.48C134.238 19.056 135.427 19.8613 136.451 20.896C137.475 21.92 138.275 23.1093 138.851 24.464C139.438 25.808 139.731 27.2533 139.731 28.8C139.731 30.3467 139.438 31.7973 138.851 33.152C138.275 34.496 137.475 35.6853 136.451 36.72C135.427 37.744 134.238 38.5493 132.883 39.136C131.528 39.712 130.078 40 128.531 40H121.123ZM124.451 36.672H128.531C129.619 36.672 130.632 36.4693 131.571 36.064C132.52 35.6587 133.358 35.0933 134.083 34.368C134.819 33.6427 135.39 32.8053 135.795 31.856C136.2 30.9067 136.403 29.888 136.403 28.8C136.403 27.712 136.2 26.6933 135.795 25.744C135.39 24.7947 134.819 23.9573 134.083 23.232C133.358 22.5067 132.52 21.9413 131.571 21.536C130.632 21.1307 129.619 20.928 128.531 20.928H124.451V36.672ZM149.257 40.416C147.785 40.416 146.441 40.0373 145.225 39.28C144.02 38.5227 143.054 37.5093 142.329 36.24C141.614 34.96 141.257 33.5467 141.257 32C141.257 30.8267 141.465 29.7333 141.881 28.72C142.297 27.696 142.868 26.8 143.593 26.032C144.329 25.2533 145.182 24.6453 146.153 24.208C147.124 23.7707 148.158 23.552 149.257 23.552C150.729 23.552 152.068 23.9307 153.273 24.688C154.489 25.4453 155.454 26.464 156.169 27.744C156.894 29.024 157.257 30.4427 157.257 32C157.257 33.1627 157.049 34.2507 156.633 35.264C156.217 36.2773 155.641 37.1733 154.905 37.952C154.18 38.72 153.332 39.3227 152.361 39.76C151.401 40.1973 150.366 40.416 149.257 40.416ZM149.257 37.088C150.142 37.088 150.937 36.8533 151.641 36.384C152.345 35.9147 152.9 35.296 153.305 34.528C153.721 33.7493 153.929 32.9067 153.929 32C153.929 31.072 153.716 30.2187 153.289 29.44C152.873 28.6613 152.313 28.0427 151.609 27.584C150.905 27.1147 150.121 26.88 149.257 26.88C148.382 26.88 147.588 27.1147 146.873 27.584C146.169 28.0533 145.609 28.6773 145.193 29.456C144.788 30.2347 144.585 31.0827 144.585 32C144.585 32.9493 144.798 33.808 145.225 34.576C145.652 35.344 146.217 35.9573 146.921 36.416C147.636 36.864 148.414 37.088 149.257 37.088ZM170.259 35.456L173.235 37.072C172.509 38.0853 171.587 38.896 170.467 39.504C169.357 40.112 168.152 40.416 166.851 40.416C165.379 40.416 164.035 40.0373 162.819 39.28C161.613 38.5227 160.648 37.5093 159.923 36.24C159.208 34.96 158.851 33.5467 158.851 32C158.851 30.8267 159.059 29.7333 159.475 28.72C159.891 27.696 160.461 26.8 161.187 26.032C161.923 25.2533 162.776 24.6453 163.747 24.208C164.717 23.7707 165.752 23.552 166.851 23.552C168.152 23.552 169.357 23.856 170.467 24.464C171.587 25.072 172.509 25.888 173.235 26.912L170.259 28.528C169.811 27.9947 169.288 27.5893 168.691 27.312C168.093 27.024 167.48 26.88 166.851 26.88C165.976 26.88 165.181 27.12 164.467 27.6C163.763 28.0693 163.203 28.6933 162.787 29.472C162.381 30.24 162.179 31.0827 162.179 32C162.179 32.9067 162.387 33.7493 162.803 34.528C163.219 35.296 163.779 35.9147 164.483 36.384C165.197 36.8533 165.987 37.088 166.851 37.088C167.512 37.088 168.141 36.9387 168.739 36.64C169.336 36.3413 169.843 35.9467 170.259 35.456ZM184.571 27.328H181.211L181.195 40H177.867L177.883 27.328H175.339V24H177.883L177.867 18.976H181.195L181.211 24H184.571V27.328ZM194.101 40.416C192.629 40.416 191.285 40.0373 190.069 39.28C188.863 38.5227 187.898 37.5093 187.173 36.24C186.458 34.96 186.101 33.5467 186.101 32C186.101 30.8267 186.309 29.7333 186.725 28.72C187.141 27.696 187.711 26.8 188.437 26.032C189.173 25.2533 190.026 24.6453 190.997 24.208C191.967 23.7707 193.002 23.552 194.101 23.552C195.573 23.552 196.911 23.9307 198.117 24.688C199.333 25.4453 200.298 26.464 201.013 27.744C201.738 29.024 202.101 30.4427 202.101 32C202.101 33.1627 201.893 34.2507 201.477 35.264C201.061 36.2773 200.485 37.1733 199.749 37.952C199.023 38.72 198.175 39.3227 197.205 39.76C196.245 40.1973 195.21 40.416 194.101 40.416ZM194.101 37.088C194.986 37.088 195.781 36.8533 196.485 36.384C197.189 35.9147 197.743 35.296 198.149 34.528C198.565 33.7493 198.773 32.9067 198.773 32C198.773 31.072 198.559 30.2187 198.133 29.44C197.717 28.6613 197.157 28.0427 196.453 27.584C195.749 27.1147 194.965 26.88 194.101 26.88C193.226 26.88 192.431 27.1147 191.717 27.584C191.013 28.0533 190.453 28.6773 190.037 29.456C189.631 30.2347 189.429 31.0827 189.429 32C189.429 32.9493 189.642 33.808 190.069 34.576C190.495 35.344 191.061 35.9573 191.765 36.416C192.479 36.864 193.258 37.088 194.101 37.088ZM204.686 40V24H208.014V25.696C208.568 25.0347 209.251 24.512 210.062 24.128C210.872 23.744 211.747 23.552 212.686 23.552C213.283 23.552 213.875 23.632 214.462 23.792L213.134 27.152C212.718 26.992 212.302 26.912 211.886 26.912C211.182 26.912 210.536 27.088 209.95 27.44C209.363 27.7813 208.894 28.2453 208.542 28.832C208.19 29.4187 208.014 30.0693 208.014 30.784V40H204.686Z" fill="#42824A"/>
</svg>
