<svg width="153" height="47" viewBox="0 0 153 47" fill="none" xmlns="http://www.w3.org/2000/svg">
<path d="M73.7441 21.3783C74.9153 19.4065 76.6385 18.4467 78.3297 17.6243C75.4503 13.8318 70.2652 14.3918 69.0175 9.95996C69.0175 9.95996 63.2959 23.6414 73.0721 26.0097C72.6864 24.726 72.6956 23.1425 73.7437 21.3779L73.7441 21.3783Z" fill="#7AC35A"/>
<path d="M69.9985 11.8727C69.5736 11.3534 69.2336 10.734 69.0156 9.95996C69.0156 9.95996 68.9339 10.1557 68.8076 10.5015C69.1319 11.0449 69.5368 11.4901 69.9988 11.8727H69.9985Z" fill="#16A34A"/>
<path d="M77.2455 16.4707C77.3534 16.5947 77.4589 16.7225 77.5614 16.8572C75.8701 17.6796 74.147 18.6394 72.9757 20.6112C71.9276 22.3758 71.9184 23.9592 72.3041 25.243C70.967 24.9191 69.9216 24.3825 69.1104 23.6994C69.9923 24.7502 71.2675 25.5734 73.0716 26.0105C72.686 24.7268 72.6952 23.1433 73.7432 21.3788C74.9145 19.4069 76.6377 18.4471 78.3289 17.6247C77.9958 17.1861 77.6309 16.8077 77.2455 16.4707Z" fill="#7AC35A"/>
<path d="M72.5148 18.0817C72.3501 17.9478 72.108 17.9742 71.9752 18.1385C71.8417 18.3035 71.8674 18.5449 72.032 18.6785C73.6676 20.0025 73.617 20.8874 73.6135 20.9266C73.5817 21.1308 73.7179 21.3249 73.9228 21.3629C73.9466 21.3672 73.9701 21.3695 73.9935 21.3695C74.175 21.3695 74.3362 21.2405 74.3703 21.0555C74.3945 20.9247 74.5488 19.7285 72.5148 18.0817Z" fill="#66BB6A"/>
<path d="M75.3359 29.3648C75.3359 29.3648 71.0042 25.9842 73.7402 21.3789C76.4761 16.7736 82.2211 17.6855 83.5436 12.9893C83.5436 12.9893 90.7017 30.1009 75.3359 29.3648Z" fill="#16A34A"/>
<path d="M74.5053 22.1464C77.0977 17.7822 82.3903 18.3694 84.0628 14.4468C83.7726 13.5442 83.5408 12.9893 83.5408 12.9893C82.2183 17.6859 76.4733 16.7736 73.7374 21.3789C71.1949 25.6591 74.7551 28.8797 75.2705 29.3134C74.168 28.0435 72.5715 25.402 74.5053 22.1464Z" fill="#16A34A"/>
<path d="M81.4262 20.3461C81.3468 20.1492 81.1234 20.0537 80.9266 20.1339C74.8787 22.572 74.6408 31.8201 74.6339 32.2127C74.63 32.4246 74.7989 32.5992 75.0103 32.6034H75.0176C75.2264 32.6034 75.3972 32.4365 75.4014 32.2269C75.4029 32.136 75.6382 23.0935 81.214 20.8458C81.4105 20.7667 81.5057 20.543 81.4266 20.3465L81.4262 20.3461Z" fill="#7AC35A"/>
<path d="M30.653 4.48C31.373 4.48 31.933 4.56 32.333 4.72C32.733 4.85333 33.0396 5.05333 33.253 5.32C33.4663 5.56 33.5996 5.86666 33.653 6.24C33.7063 6.61333 33.733 7.04 33.733 7.52V14.32C33.733 15.6 33.7063 16.84 33.653 18.04C33.6263 19.2133 33.533 20.32 33.373 21.36C33.2396 22.3733 33.0263 23.32 32.733 24.2C32.4663 25.08 32.0796 25.8533 31.573 26.52C31.3063 26.8933 30.9996 27.1733 30.653 27.36C30.3063 27.52 29.9463 27.6267 29.573 27.68C29.1996 27.7333 28.8263 27.7333 28.453 27.68C28.1063 27.6 27.7863 27.4933 27.493 27.36C26.853 27.0667 26.373 26.6133 26.053 26C25.7596 25.3867 25.7463 24.68 26.013 23.88C26.2263 23.1067 26.3996 22.4267 26.533 21.84C26.693 21.2267 26.813 20.64 26.893 20.08H7.73297C6.9863 20.08 6.37297 20.0133 5.89297 19.88C5.41297 19.72 5.03964 19.52 4.77297 19.28C4.5063 19.0133 4.31964 18.72 4.21297 18.4C4.13297 18.0533 4.09297 17.68 4.09297 17.28C4.09297 16.96 4.13297 16.64 4.21297 16.32C4.31964 15.9733 4.5063 15.68 4.77297 15.44C5.03964 15.1733 5.41297 14.96 5.89297 14.8C6.37297 14.64 6.9863 14.56 7.73297 14.56H27.093V10H8.05297C7.3063 10 6.69297 9.93333 6.21297 9.8C5.73297 9.64 5.35964 9.44 5.09297 9.2C4.8263 8.93333 4.63964 8.64 4.53297 8.32C4.45297 7.97333 4.41297 7.6 4.41297 7.2C4.41297 6.88 4.45297 6.56 4.53297 6.24C4.63964 5.89333 4.8263 5.6 5.09297 5.36C5.35964 5.09333 5.73297 4.88 6.21297 4.72C6.69297 4.56 7.3063 4.48 8.05297 4.48H30.653ZM1.73297 34.72C1.73297 34.32 1.77297 33.9467 1.85297 33.6C1.95964 33.28 2.1463 32.9867 2.41297 32.72C2.67964 32.48 3.05297 32.28 3.53297 32.12C4.01297 31.9867 4.6263 31.92 5.37297 31.92H33.173C33.9196 31.92 34.533 31.9867 35.013 32.12C35.493 32.28 35.8663 32.48 36.133 32.72C36.3996 32.9867 36.573 33.28 36.653 33.6C36.7596 33.9467 36.813 34.32 36.813 34.72C36.813 35.04 36.7596 35.36 36.653 35.68C36.573 36.0267 36.3996 36.32 36.133 36.56C35.8663 36.8267 35.493 37.04 35.013 37.2C34.533 37.36 33.9196 37.44 33.173 37.44H5.37297C4.6263 37.44 4.01297 37.36 3.53297 37.2C3.05297 37.04 2.67964 36.8267 2.41297 36.56C2.1463 36.32 1.95964 36.0267 1.85297 35.68C1.77297 35.36 1.73297 35.04 1.73297 34.72ZM41.8528 26.528C41.3194 26.528 40.8928 26.496 40.5728 26.432C40.2528 26.3467 40.0074 26.2293 39.8368 26.08C39.6661 25.9093 39.5488 25.7173 39.4848 25.504C39.4421 25.2907 39.4208 25.0347 39.4208 24.736C39.4208 24.5013 39.4421 24.2773 39.4848 24.064C39.5488 23.8507 39.6661 23.6693 39.8368 23.52C40.0074 23.3493 40.2528 23.2213 40.5728 23.136C40.8928 23.0293 41.3194 22.976 41.8528 22.976H50.9088V21.408H44.2848C43.6874 21.408 43.2181 21.3547 42.8768 21.248C42.5354 21.1413 42.2688 20.992 42.0768 20.8C41.9061 20.608 41.7994 20.384 41.7568 20.128C41.7141 19.8507 41.6928 19.5627 41.6928 19.264V15.968C41.6928 15.7547 41.7034 15.5307 41.7248 15.296C41.7461 15.0613 41.8208 14.848 41.9488 14.656C42.0768 14.464 42.2794 14.304 42.5568 14.176C42.8554 14.048 43.2714 13.984 43.8048 13.984H60.0928V12.896H43.7088C42.9621 12.896 42.4181 12.7467 42.0768 12.448C41.7568 12.1493 41.5968 11.7333 41.5968 11.2C41.5968 10.7733 41.7568 10.3787 42.0768 10.016C42.4181 9.65333 42.9621 9.472 43.7088 9.472H62.8768C63.3888 9.472 63.8048 9.536 64.1248 9.664C64.4448 9.77067 64.6901 9.92 64.8608 10.112C65.0314 10.304 65.1381 10.5173 65.1808 10.752C65.2448 10.9653 65.2768 11.1787 65.2768 11.392V15.04C65.2768 15.296 65.2554 15.5413 65.2128 15.776C65.1701 15.9893 65.0741 16.1813 64.9248 16.352C64.7968 16.5227 64.5834 16.6613 64.2848 16.768C63.9861 16.8533 63.5808 16.896 63.0688 16.896H46.8768V18.08H63.3888C64.2848 18.08 64.9354 18.2293 65.3408 18.528C65.7674 18.8267 65.9808 19.232 65.9808 19.744C65.9808 20.3413 65.7674 20.768 65.3408 21.024C64.9354 21.28 64.2848 21.408 63.3888 21.408H56.0928V22.976H65.1168C65.6501 22.976 66.0768 23.0293 66.3968 23.136C66.7168 23.2213 66.9621 23.3493 67.1328 23.52C67.3034 23.6693 67.4101 23.8507 67.4528 24.064C67.5168 24.2773 67.5488 24.5013 67.5488 24.736C67.5488 25.0347 67.5168 25.2907 67.4528 25.504C67.4101 25.7173 67.3034 25.9093 67.1328 26.08C66.9621 26.2293 66.7168 26.3467 66.3968 26.432C66.0768 26.496 65.6501 26.528 65.1168 26.528H41.8528ZM44.1248 27.072C44.6794 27.072 45.1808 27.2 45.6288 27.456C46.0981 27.712 46.4181 28.1813 46.5888 28.864H60.8608C61.0314 28.1813 61.3514 27.712 61.8208 27.456C62.2901 27.2 62.8021 27.072 63.3568 27.072C63.6981 27.072 64.0074 27.1147 64.2848 27.2C64.5834 27.2853 64.8394 27.4347 65.0528 27.648C65.2874 27.8613 65.4688 28.1493 65.5968 28.512C65.7248 28.8747 65.7888 29.3227 65.7888 29.856V34.88C65.7888 35.2 65.7674 35.488 65.7248 35.744C65.6821 36.0213 65.5648 36.256 65.3728 36.448C65.2021 36.6613 64.9461 36.8213 64.6048 36.928C64.2634 37.056 63.7941 37.12 63.1968 37.12H44.2848C43.6874 37.12 43.2181 37.056 42.8768 36.928C42.5354 36.8213 42.2688 36.6613 42.0768 36.448C41.9061 36.256 41.7994 36.0213 41.7568 35.744C41.7141 35.488 41.6928 35.2 41.6928 34.88V29.856C41.6928 28.7893 41.9274 28.064 42.3968 27.68C42.8661 27.2747 43.4421 27.072 44.1248 27.072ZM60.7648 33.632V32.16H46.7168V33.632H60.7648Z" fill="#7AC35A"/>
<path d="M72.2956 34.608C72.2956 33.712 72.5943 33.0293 73.1916 32.56C73.8103 32.0907 74.5676 31.856 75.4636 31.856C76.3596 31.856 77.117 32.0907 77.7356 32.56C78.3543 33.0293 78.6636 33.712 78.6636 34.608C78.6636 35.504 78.3543 36.176 77.7356 36.624C77.117 37.0933 76.3596 37.328 75.4636 37.328C74.5676 37.328 73.8103 37.0933 73.1916 36.624C72.5943 36.176 72.2956 35.504 72.2956 34.608Z" fill="#CC6039"/>
<path d="M91.269 19.296H97.541C98.1383 19.296 98.629 19.36 99.013 19.488C99.397 19.5947 99.6956 19.7547 99.909 19.968C100.122 20.16 100.261 20.384 100.325 20.64C100.41 20.896 100.453 21.152 100.453 21.408C100.453 21.728 100.41 22.0267 100.325 22.304C100.261 22.56 100.122 22.7947 99.909 23.008C99.6956 23.2 99.397 23.36 99.013 23.488C98.629 23.5947 98.1383 23.648 97.541 23.648H88.677C88.0796 23.648 87.6103 23.5947 87.269 23.488C86.9276 23.36 86.661 23.2 86.469 23.008C86.2983 22.7947 86.1916 22.56 86.149 22.304C86.1063 22.0267 86.085 21.728 86.085 21.408V12.224C86.085 11.8187 86.1063 11.456 86.149 11.136C86.1916 10.7947 86.2983 10.5173 86.469 10.304C86.661 10.0693 86.9276 9.89867 87.269 9.792C87.6103 9.664 88.0796 9.6 88.677 9.6H96.901C97.4983 9.6 97.989 9.664 98.373 9.792C98.757 9.89867 99.0556 10.0587 99.269 10.272C99.4823 10.464 99.621 10.6987 99.685 10.976C99.7703 11.232 99.813 11.52 99.813 11.84C99.813 12.096 99.7703 12.352 99.685 12.608C99.621 12.864 99.4823 13.0987 99.269 13.312C99.0556 13.504 98.757 13.664 98.373 13.792C97.989 13.8987 97.4983 13.952 96.901 13.952H91.269V19.296ZM104.709 30.56H88.677C88.0796 30.56 87.589 30.496 87.205 30.368C86.821 30.24 86.5223 30.08 86.309 29.888C86.0956 29.6747 85.9463 29.44 85.861 29.184C85.797 28.9067 85.765 28.64 85.765 28.384C85.765 28.064 85.797 27.776 85.861 27.52C85.9463 27.2427 86.0956 27.008 86.309 26.816C86.5223 26.6027 86.821 26.4427 87.205 26.336C87.589 26.208 88.0796 26.144 88.677 26.144H107.301C107.898 26.144 108.368 26.208 108.709 26.336C109.05 26.4427 109.306 26.6027 109.477 26.816C109.669 27.008 109.786 27.2427 109.829 27.52C109.872 27.776 109.893 28.064 109.893 28.384V34.304C109.893 34.8373 109.818 35.2853 109.669 35.648C109.52 36.0107 109.328 36.2987 109.093 36.512C108.858 36.7253 108.581 36.8747 108.261 36.96C107.962 37.0453 107.642 37.088 107.301 37.088C106.618 37.088 106.01 36.8853 105.477 36.48C104.965 36.096 104.709 35.3707 104.709 34.304V30.56ZM104.389 12.064C104.389 10.9973 104.645 10.272 105.157 9.888C105.69 9.48267 106.298 9.28 106.981 9.28C107.322 9.28 107.642 9.32267 107.941 9.408C108.261 9.49333 108.538 9.64267 108.773 9.856C109.008 10.0693 109.2 10.3573 109.349 10.72C109.498 11.0827 109.573 11.5307 109.573 12.064V14.624H111.909C112.506 14.624 112.997 14.6987 113.381 14.848C113.765 14.976 114.064 15.1467 114.277 15.36C114.49 15.5733 114.629 15.8187 114.693 16.096C114.778 16.352 114.821 16.608 114.821 16.864C114.821 17.184 114.778 17.4827 114.693 17.76C114.629 18.0373 114.49 18.2827 114.277 18.496C114.064 18.688 113.765 18.848 113.381 18.976C112.997 19.104 112.506 19.168 111.909 19.168H109.573V21.76C109.573 22.3147 109.498 22.7733 109.349 23.136C109.2 23.4987 109.008 23.7867 108.773 24C108.538 24.2133 108.261 24.3627 107.941 24.448C107.642 24.5333 107.322 24.576 106.981 24.576C106.64 24.576 106.309 24.5333 105.989 24.448C105.69 24.3627 105.413 24.2133 105.157 24C104.922 23.7867 104.73 23.4987 104.581 23.136C104.453 22.7733 104.389 22.3147 104.389 21.76V12.064ZM124.339 17.72H129.579C130.326 17.72 130.939 17.8 131.419 17.96C131.899 18.0933 132.273 18.2933 132.539 18.56C132.806 18.8 132.979 19.0933 133.059 19.44C133.166 19.76 133.219 20.12 133.219 20.52C133.219 20.84 133.166 21.1733 133.059 21.52C132.979 21.84 132.806 22.1333 132.539 22.4C132.273 22.64 131.899 22.84 131.419 23C130.939 23.16 130.326 23.24 129.579 23.24H124.339V31.4H130.579C131.326 31.4 131.939 31.48 132.419 31.64C132.899 31.8 133.273 32 133.539 32.24C133.806 32.5067 133.979 32.8 134.059 33.12C134.166 33.4667 134.219 33.8 134.219 34.12C134.219 34.52 134.166 34.88 134.059 35.2C133.979 35.5467 133.806 35.84 133.539 36.08C133.273 36.3467 132.899 36.5467 132.419 36.68C131.939 36.84 131.326 36.92 130.579 36.92H121.099C120.353 36.92 119.766 36.84 119.339 36.68C118.913 36.5467 118.579 36.3467 118.339 36.08C118.126 35.84 117.993 35.5467 117.939 35.2C117.886 34.88 117.859 34.52 117.859 34.12V7.08C117.859 6.68 117.886 6.30667 117.939 5.96C117.993 5.58667 118.126 5.25333 118.339 4.96C118.579 4.66666 118.913 4.44 119.339 4.28C119.766 4.09333 120.353 4 121.099 4H129.779C130.526 4 131.139 4.08 131.619 4.24C132.099 4.37333 132.473 4.57333 132.739 4.84C133.006 5.08 133.179 5.37333 133.259 5.72C133.366 6.04 133.419 6.4 133.419 6.8C133.419 7.12 133.366 7.45333 133.259 7.8C133.179 8.12 133.006 8.41333 132.739 8.68C132.473 8.92 132.099 9.12 131.619 9.28C131.139 9.44 130.526 9.52 129.779 9.52H124.339V17.72ZM142.739 23.16H138.899C138.153 23.16 137.553 23.0933 137.099 22.96C136.646 22.8 136.286 22.6 136.019 22.36C135.779 22.0933 135.619 21.8 135.539 21.48C135.459 21.1333 135.419 20.76 135.419 20.36C135.419 20.04 135.459 19.72 135.539 19.4C135.619 19.0533 135.779 18.76 136.019 18.52C136.286 18.2533 136.646 18.04 137.099 17.88C137.553 17.72 138.153 17.64 138.899 17.64H142.739V7.08C142.739 5.74667 143.059 4.84 143.699 4.36C144.366 3.85333 145.126 3.6 145.979 3.6C146.406 3.6 146.806 3.65333 147.179 3.76C147.579 3.86667 147.926 4.05333 148.219 4.32C148.513 4.58667 148.753 4.94667 148.939 5.4C149.126 5.85333 149.219 6.41333 149.219 7.08V34.4C149.219 35.0933 149.126 35.6667 148.939 36.12C148.753 36.5733 148.513 36.9333 148.219 37.2C147.926 37.4667 147.579 37.6533 147.179 37.76C146.806 37.8667 146.406 37.92 145.979 37.92C145.553 37.92 145.139 37.8667 144.739 37.76C144.366 37.6533 144.019 37.4667 143.699 37.2C143.406 36.9333 143.166 36.5733 142.979 36.12C142.819 35.6667 142.739 35.0933 142.739 34.4V23.16Z" fill="#16A34A"/>
</svg>
