<svg width="525" height="448" viewBox="0 0 525 448" fill="none" xmlns="http://www.w3.org/2000/svg">
<path d="M254.404 220.562C250.794 220.562 247.873 217.641 247.873 214.031C247.873 210.421 250.794 207.5 254.404 207.5C258.014 207.5 260.936 210.421 260.936 214.031C260.936 217.641 258.014 220.562 254.404 220.562ZM254.404 211.062C252.766 211.062 251.436 212.393 251.436 214.031C251.436 215.67 252.766 217 254.404 217C256.043 217 257.373 215.67 257.373 214.031C257.373 212.393 256.043 211.062 254.404 211.062Z" fill="#3CB65A"/>
<path d="M268.656 249.062H254.406C241.51 249.062 236 243.552 236 230.656V216.406C236 203.51 241.51 198 254.406 198H263.906C264.88 198 265.688 198.808 265.688 199.781C265.688 200.755 264.88 201.562 263.906 201.562H254.406C243.458 201.562 239.563 205.457 239.563 216.406V230.656C239.563 241.605 243.458 245.5 254.406 245.5H268.656C279.605 245.5 283.5 241.605 283.5 230.656V218.781C283.5 217.808 284.308 217 285.281 217C286.255 217 287.063 217.808 287.063 218.781V230.656C287.063 243.552 281.553 249.062 268.656 249.062Z" fill="#3CB65A"/>
<path d="M275.783 215.812C274.809 215.812 274.002 215.005 274.002 214.031V199.781C274.002 199.068 274.429 198.403 275.094 198.142C275.759 197.881 276.519 198.023 277.042 198.522L281.792 203.272C282.481 203.961 282.481 205.101 281.792 205.79C281.103 206.478 279.963 206.478 279.274 205.79L277.564 204.08V214.031C277.564 215.005 276.757 215.812 275.783 215.812V215.812Z" fill="#3CB65A"/>
<path d="M271.029 206.312C270.578 206.312 270.127 206.146 269.77 205.79C269.082 205.101 269.082 203.961 269.77 203.272L274.52 198.522C275.209 197.834 276.349 197.834 277.038 198.522C277.727 199.211 277.727 200.351 277.038 201.04L272.288 205.79C271.932 206.146 271.48 206.312 271.029 206.312V206.312Z" fill="#3CB65A"/>
<path d="M239.373 241.819C238.803 241.819 238.233 241.534 237.9 241.035C237.354 240.228 237.568 239.111 238.375 238.565L250.084 230.704C252.649 228.994 256.188 229.184 258.515 231.155L259.299 231.844C260.487 232.865 262.505 232.865 263.669 231.844L273.549 223.365C276.067 221.204 280.033 221.204 282.574 223.365L286.445 226.69C287.182 227.331 287.277 228.448 286.635 229.208C285.994 229.944 284.854 230.039 284.118 229.398L280.247 226.073C279.059 225.051 277.064 225.051 275.877 226.073L265.997 234.551C263.479 236.713 259.513 236.713 256.972 234.551L256.188 233.863C255.095 232.936 253.29 232.841 252.079 233.673L240.394 241.534C240.062 241.724 239.705 241.819 239.373 241.819V241.819Z" fill="#3CB65A"/>
</svg>
