<svg width="1728" height="1117" viewBox="0 0 1728 1117" fill="none" xmlns="http://www.w3.org/2000/svg">
<g clip-path="url(#clip0_949_2190)">
<rect width="1728" height="1117" fill="#F9F8F6"/>
<g clip-path="url(#clip1_949_2190)">
<path d="M-70.404 649.264C-70.404 649.264 -68.2637 549.603 -23.7552 475.209C34.9123 376.935 58.9352 213.385 48.5005 172.237" stroke="#AAAAAA" stroke-width="1.0549" stroke-miterlimit="10"/>
<path d="M39.8064 294.46C39.8064 294.46 54.3396 270.934 78.0572 267.974" stroke="#AAAAAA" stroke-width="1.0549" stroke-miterlimit="10"/>
<path d="M44.381 268.897C44.381 268.897 32.0022 263.726 35.1367 243.743C38.2922 224.488 27.2596 218.038 22.7419 217.881" stroke="#AAAAAA" stroke-width="1.0549" stroke-miterlimit="10"/>
<path d="M5.52679 415.473C5.52679 415.473 16.5935 413.032 22.1059 394.727C28.6145 373.114 38.7514 373.762 44.9375 378.752" stroke="#AAAAAA" stroke-width="1.0549" stroke-miterlimit="10"/>
<path d="M23.7388 360.581C23.7388 360.581 12.2834 357.132 13.4497 342.088" stroke="#AAAAAA" stroke-width="1.0549" stroke-miterlimit="10"/>
<path d="M-61.2044 577.227C-61.2044 577.227 -40.5013 570.712 -36.6363 548.303C-32.7712 525.894 0.220207 461.021 15.5828 443.517" stroke="#AAAAAA" stroke-width="1.0549" stroke-miterlimit="10"/>
<path d="M-11.8234 452.343C-11.8234 452.343 -25.9224 448.097 -16.5808 433.831C-8.01179 420.536 -7.59054 402.382 -7.59054 402.382" stroke="#AAAAAA" stroke-width="1.0549" stroke-miterlimit="10"/>
<path d="M77.7533 166.855C67.3847 190.913 65.9932 193.14 51.9752 194.211C37.9572 195.281 32.6653 180.939 31.2788 163.203C29.8259 145.687 32.9085 131.461 46.9265 130.39C60.9445 129.32 84.7835 150.691 77.7533 166.855Z" fill="#2B663C"/>
<path d="M56.8989 268.818C56.8989 268.818 77.6929 227.693 97.7091 240.216C117.505 252.672 99.6462 274.475 75.2224 278.185C50.865 281.674 56.8989 268.818 56.8989 268.818Z" fill="#2B663C"/>
<path d="M40.2719 227.489C41.9177 216.439 40.2834 202.717 24.4917 195.315C-4.29429 181.595 -14.7261 203.47 -5.70695 215.808C0.364132 224.371 15.942 226.898 26.1599 232.861C30.8947 235.49 39.0035 236.488 40.2719 227.489Z" fill="#2B663C"/>
<path d="M33.1825 385.074C35.2607 396.524 51.3552 424.463 76.1128 402.091C100.87 379.72 67.8211 357.018 40.062 366.218C34.1529 368.288 32.2414 380.22 33.1825 385.074Z" fill="#2B663C"/>
<path d="M14.9792 352.17C21.525 351.976 33.2899 338.441 22.1763 326.675C7.01311 310.803 4.68227 290.618 -13.9296 298.964C-35.629 308.786 -24.3616 353.553 14.9792 352.17Z" fill="#2B663C"/>
<path d="M7.2342 456.879C7.2342 456.879 37.6352 466.034 42.6794 451.677C47.7236 437.32 43.1833 421.28 27.5568 422.107C11.6436 423.088 -7.74752 437.213 7.2342 456.879Z" fill="#2B663C"/>
<path d="M-12.2024 504.666C-12.2024 504.666 -8.25483 502.728 8.02283 509.314C21.2827 514.75 32.4046 504.148 23.4308 490.862C14.1702 477.73 -5.13167 474.804 -12.2024 504.666Z" fill="#2B663C"/>
<path d="M-8.33378 414.425C-8.33378 414.425 -0.375541 412.733 0.711391 407.528C1.86474 402.102 13.087 382.39 -12.9987 376.458C-39.0845 370.527 -25.2756 410.045 -8.33378 414.425Z" fill="#2B663C"/>
</g>
</g>
<defs>
<clipPath id="clip0_949_2190">
<rect width="1728" height="1117" fill="white"/>
</clipPath>
<clipPath id="clip1_949_2190">
<rect width="143.103" height="532.049" fill="white" transform="translate(16.418 120) rotate(16.7592)"/>
</clipPath>
</defs>
</svg>
