<svg width="50" height="50" viewBox="0 0 50 50" fill="none" xmlns="http://www.w3.org/2000/svg">
<g clip-path="url(#clip0_1039_2042)">
<path d="M20.1017 7.16853C15.7336 2.80264 7.18567 2.29639 1.13521 2.29639C0.508595 2.29639 0 2.80487 0 3.43149C0 9.48195 0.504019 18.0298 4.87214 22.3981C6.71571 24.2416 9.5423 25.0658 12.3439 25.0658C15.3884 25.0658 18.4057 24.0918 20.1017 22.3958C23.3551 19.1424 23.9523 11.0168 20.1017 7.16853ZM18.4966 20.7929C16.0673 23.2199 9.32211 23.6353 6.47966 20.7929C2.95377 17.2671 2.34301 10.1041 2.27713 4.57352C7.80771 4.63939 14.9707 5.25005 18.4965 8.77594C21.3391 11.6184 20.9236 18.3659 18.4966 20.7929Z" fill="black"/>
<path d="M48.8647 6.7876C42.8143 6.7876 34.2664 7.29162 29.8982 11.6597C26.0477 15.508 26.6447 23.6336 29.8982 26.887C31.5941 28.5808 34.6092 29.5547 37.6537 29.5547C40.4553 29.5547 43.2797 28.7328 45.1277 26.8894C49.4936 22.5213 49.9998 13.9734 49.9998 7.92281C49.9999 7.29619 49.4913 6.7876 48.8647 6.7876ZM43.518 25.2819C40.6756 28.1243 33.9281 27.7088 31.5011 25.2819C29.0741 22.8549 28.6587 16.1074 31.5011 13.2649C35.027 9.73902 42.1899 9.12837 47.7205 9.06249C47.6547 14.5953 47.0439 21.7583 43.518 25.2819Z" fill="black"/>
<path d="M40.6658 16.6137C40.398 16.0438 39.6306 15.8486 39.0652 16.1119C30.3585 20.2053 26.0811 27.3433 24.1376 34.6811C21.7333 19.0792 14.7792 14.3228 11.83 12.3045C11.4622 12.0525 11.1762 11.8686 11.0173 11.7119C10.5746 11.2692 9.85484 11.2692 9.41212 11.7119C8.9694 12.1546 8.9694 12.8744 9.41212 13.3171C9.63688 13.5396 10.0251 13.8189 10.5496 14.1775C13.8734 16.4502 22.7027 22.4916 22.7027 46.5687C22.7027 47.1953 23.2113 47.7039 23.8379 47.7039C24.4646 47.7039 24.9732 47.1953 24.9732 46.571C24.9732 36.8426 27.5864 24.0174 40.0324 18.1689C40.0324 18.1667 40.2163 18.0804 40.2163 18.0804C40.7816 17.8124 40.9337 17.1812 40.6658 16.6137Z" fill="black"/>
</g>
<defs>
<clipPath id="clip0_1039_2042">
<rect width="50" height="50" fill="white"/>
</clipPath>
</defs>
</svg>
