<svg width="50" height="50" viewBox="0 0 50 50" fill="none" xmlns="http://www.w3.org/2000/svg">
<path d="M48.867 6.78557C42.816 6.78557 34.2673 7.29187 29.8987 11.6582C28.0073 13.5496 27.0628 16.6329 27.308 20.1228C27.3399 20.5838 27.6464 20.9765 28.0868 21.1219C28.525 21.265 29.0064 21.131 29.3061 20.7791C31.7356 17.9204 34.7554 15.6295 38.2885 13.9697C38.5882 13.8266 38.9424 13.8152 39.2648 13.9288C39.5486 14.031 39.7711 14.2239 39.8869 14.4715C40.1275 14.9801 40.0504 15.6499 39.2512 16.0268C39.2057 16.0495 39.1648 16.079 39.1195 16.0995C39.1036 16.1063 39.0854 16.1041 39.0718 16.1109C30.3665 20.2025 26.0865 27.3411 24.1428 34.6818C22.726 25.4906 19.7334 20.0797 16.9066 16.758C14.8609 14.106 12.8491 12.7005 11.6866 11.9058C11.4709 11.7582 10.8193 11.3132 10.5491 11.043C10.1063 10.6002 10.1063 9.88041 10.5491 9.43765C10.9918 8.99713 11.7139 8.99713 12.2065 9.48757C12.3269 9.59432 12.5199 9.73056 12.7651 9.89404L12.9672 10.0303C14.6111 11.1564 17.6719 13.2476 20.3874 17.7501C20.6304 18.152 21.1004 18.3678 21.5567 18.2815C22.0199 18.1997 22.3832 17.8433 22.4741 17.3823C23.0667 14.3557 22.801 9.86445 20.1014 7.16479C15.7329 2.80073 7.1842 2.29443 1.13542 2.29443C0.508641 2.29433 0 2.80297 0 3.42964C0 9.48065 0.5063 18.0293 4.87259 22.3979C6.69354 24.2189 9.5023 25.0363 12.2927 25.0363C14.5701 25.0363 16.8021 24.4664 18.5118 23.4787C20.8436 28.3104 22.7056 35.5285 22.7056 46.5703C22.7056 47.1969 23.2142 47.7056 23.8409 47.7056C24.4676 47.7056 24.9762 47.1969 24.9762 46.5703C24.9762 40.4103 26.032 33.0173 29.9578 26.9322C31.5313 28.4694 34.2401 29.4435 37.2417 29.5343C37.3916 29.5388 37.5392 29.5411 37.6867 29.5411C40.7361 29.5411 43.4312 28.5852 45.1273 26.8867C49.4958 22.5182 49.9999 13.9696 49.9999 7.91844C50.0023 7.29187 49.4959 6.78557 48.867 6.78557Z" fill="black"/>
</svg>
