<svg width="50" height="50" viewBox="0 0 50 50" fill="none" xmlns="http://www.w3.org/2000/svg">
<path d="M50 25C50 31.6304 47.3661 37.9893 42.6777 42.6777C37.9893 47.3661 31.6304 50 25 50C18.3696 50 12.0107 47.3661 7.32233 42.6777C2.63392 37.9893 0 31.6304 0 25C0 24.5264 0.188137 24.0722 0.523023 23.7373C0.85791 23.4024 1.31211 23.2143 1.78571 23.2143C2.25932 23.2143 2.71352 23.4024 3.0484 23.7373C3.38329 24.0722 3.57143 24.5264 3.57143 25C3.56428 29.7822 5.15464 34.4299 8.0901 38.2052C11.0256 41.9805 15.1379 44.6672 19.7744 45.8388C24.4109 47.0104 29.3059 46.5998 33.6825 44.6722C38.059 42.7446 41.6664 39.4104 43.9319 35.1988C46.1974 30.9872 46.9913 26.1396 46.1876 21.4254C45.3839 16.7111 43.0286 12.4004 39.4956 9.17742C35.9626 5.95443 31.4542 4.00383 26.6862 3.63523C21.9182 3.26664 17.1637 4.50116 13.1773 7.14287H14.2857C14.7593 7.14287 15.2135 7.33101 15.5484 7.66589C15.8833 8.00078 16.0714 8.45498 16.0714 8.92858C16.0714 9.40218 15.8833 9.85639 15.5484 10.1913C15.2135 10.5262 14.7593 10.7143 14.2857 10.7143H8.92857C8.69403 10.7144 8.46176 10.6683 8.24505 10.5786C8.02834 10.4889 7.83143 10.3574 7.66558 10.1916C7.49974 10.0257 7.36821 9.82882 7.27851 9.6121C7.18882 9.39539 7.14272 9.16312 7.14286 8.92858V3.57144C7.14286 3.09784 7.33099 2.64364 7.66588 2.30875C8.00077 1.97386 8.45497 1.78573 8.92857 1.78573C9.40217 1.78573 9.85638 1.97386 10.1913 2.30875C10.5261 2.64364 10.7143 3.09784 10.7143 3.57144V4.48915C14.4621 1.87697 18.8542 0.34192 23.4132 0.050807C27.9723 -0.240306 32.5239 0.723656 36.5735 2.83794C40.6232 4.95223 44.0159 8.13597 46.383 12.0432C48.7501 15.9504 50.0011 20.4317 50 25ZM41.0714 25C41.0714 28.1786 40.1289 31.2859 38.3629 33.9288C36.597 36.5717 34.0869 38.6317 31.1503 39.8481C28.2136 41.0645 24.9822 41.3827 21.8646 40.7626C18.7471 40.1425 15.8834 38.6118 13.6358 36.3642C11.3882 34.1166 9.8575 31.2529 9.23738 28.1354C8.61726 25.0178 8.93553 21.7864 10.1519 18.8497C11.3683 15.9131 13.4283 13.4031 16.0712 11.6371C18.7141 9.87115 21.8214 8.92858 25 8.92858C29.261 8.93323 33.3461 10.628 36.3591 13.6409C39.372 16.6539 41.0668 20.739 41.0714 25ZM31.3477 27.0857L26.7857 24.0444V16.0714C26.7857 15.5978 26.5976 15.1436 26.2627 14.8087C25.9278 14.4739 25.4736 14.2857 25 14.2857C24.5264 14.2857 24.0722 14.4739 23.7373 14.8087C23.4024 15.1436 23.2143 15.5978 23.2143 16.0714V25C23.2143 25.294 23.287 25.5834 23.4257 25.8425C23.5644 26.1017 23.7649 26.3226 24.0095 26.4857L29.3666 30.0571C29.7607 30.3144 30.2404 30.4056 30.7014 30.3111C31.1624 30.2166 31.5674 29.9439 31.8284 29.5523C32.0895 29.1608 32.1854 28.682 32.0954 28.2201C32.0054 27.7583 31.7366 27.3506 31.3477 27.0857Z" fill="black"/>
</svg>
