<svg width="50" height="50" viewBox="0 0 50 50" fill="none" xmlns="http://www.w3.org/2000/svg">
<g clip-path="url(#clip0_818_2815)">
<path d="M24.9999 5.25C14.1097 5.25 5.25 14.1098 5.25 24.9999C5.25 31.622 8.52617 37.4929 13.5426 41.0778V36.7144C13.5426 33.0342 16.526 30.0509 20.2062 30.0509H29.7937C33.4739 30.0509 36.4573 33.0343 36.4573 36.7144V41.0778C41.4738 37.4928 44.7499 31.622 44.7499 24.9999C44.7498 14.1098 35.8901 5.25 24.9999 5.25ZM24.9999 25.9521C21.2297 25.9521 18.1621 22.8847 18.1621 19.1143C18.1621 15.344 21.2295 12.2767 24.9999 12.2767C28.7703 12.2767 31.8377 15.344 31.8377 19.1143C31.8377 22.8847 28.7701 25.9521 24.9999 25.9521Z" fill="black"/>
<path d="M25 0C11.1928 0 0 11.1928 0 25C0 38.8072 11.1928 50 25 50C38.8072 50 50 38.8072 50 25C50 11.1928 38.807 0 25 0ZM25 47.2894C12.7097 47.2894 2.71064 37.2903 2.71064 25C2.71064 12.7097 12.7097 2.71064 25 2.71064C37.2903 2.71064 47.2894 12.7097 47.2894 25C47.2894 37.2903 37.2903 47.2894 25 47.2894Z" fill="black"/>
</g>
<defs>
<clipPath id="clip0_818_2815">
<rect width="50" height="50" fill="white"/>
</clipPath>
</defs>
</svg>
