<svg width="50" height="50" viewBox="0 0 50 50" fill="none" xmlns="http://www.w3.org/2000/svg">
<g clip-path="url(#clip0_1041_2052)">
<path d="M25 0C11.2149 0 0 11.2149 0 25C0 38.7851 11.2149 50 25 50C38.7851 50 50 38.7851 50 25C50 11.2149 38.7851 0 25 0ZM33.8765 44.5371C31.1698 45.7717 28.1639 46.4604 25 46.4604C21.8361 46.4604 18.8301 45.7717 16.1235 44.5371V35.8853C16.1235 33.4469 18.1072 31.4633 20.5455 31.4633H29.4545C31.8928 31.4633 33.8765 33.447 33.8765 35.8853V44.5371V44.5371ZM37.416 42.495V35.8853C37.416 31.4953 33.8445 27.9237 29.4545 27.9237H29.0118C32.1389 26.4229 34.3032 23.2252 34.3032 19.5312C34.3032 14.4013 30.1298 10.2279 24.9999 10.2279C19.87 10.2279 15.6966 14.4014 15.6966 19.5312C15.6966 23.2253 17.861 26.4229 20.988 27.9237H20.5453C16.1554 27.9237 12.5838 31.4952 12.5838 35.8853V42.495C7.11396 38.6018 3.53955 32.2104 3.53955 25C3.53955 13.1667 13.1667 3.53955 25 3.53955C36.8333 3.53955 46.4604 13.1667 46.4604 25C46.4604 32.2104 42.886 38.6018 37.416 42.495ZM25 25.2948C21.8219 25.2948 19.2362 22.7092 19.2362 19.5311C19.2362 16.3529 21.8219 13.7674 25 13.7674C28.1781 13.7674 30.7638 16.353 30.7638 19.5311C30.7638 22.7094 28.1781 25.2948 25 25.2948Z" fill="black"/>
</g>
<defs>
<clipPath id="clip0_1041_2052">
<rect width="50" height="50" fill="white"/>
</clipPath>
</defs>
</svg>
